<svg id="Layer_1" data-name="Layer 1" xmlns="http://www.w3.org/2000/svg" viewBox="0 0 745.75 134.04"><defs><style>.cls-1{fill:#ed1f24;}.cls-2{fill:#fff;}</style></defs><path class="cls-1" d="M199.37,0H10A10,10,0,0,0,0,10V124.05a10,10,0,0,0,10,10H199.37a10,10,0,0,0,10-10V10A10,10,0,0,0,199.37,0ZM97.85,115q-12.22,11.6-36.25,11.59-18,0-30.68-8.2T14.23,94l25.42-5.76q4.29,16.41,23.83,16.41,9.42,0,14.06-3.65t4.62-8.72a9.1,9.1,0,0,0-4.2-8Q73.76,81.49,61.75,79q-22.38-4.65-31.9-12.68T20.33,42.84A34.86,34.86,0,0,1,31.7,16.47Q43.06,5.75,62.54,5.74,97,5.74,106.9,33.31L83.54,41.12q-4.71-13.9-20-13.91-16.27,0-16.27,10.56a9.48,9.48,0,0,0,3,7.13q3,2.93,13.76,5.07Q82,53.6,90.35,57.28a33.59,33.59,0,0,1,14,11.9,31.29,31.29,0,0,1,5.71,18.33Q110.08,103.39,97.85,115Zm95.64,9.79H119V7.54h27.82v94.05h46.64Z"/><path class="cls-2" d="M552.56,7.54l36.7,117.24H559.75l-7.23-24.14h-37.9l-7.35,24.14H483.19L520.77,7.54ZM521.21,79h24.84L533.74,37.86Z"/><path class="cls-2" d="M654.25,7.54V30.73h-29v94.05H597.39v-94h-29.2V7.54Z"/><path class="cls-2" d="M745.75,29.87H689.93V53.92h43.88V76H689.93v25.6h55.82v23.19H662V7.54h83.74Z"/><polygon class="cls-2" points="345.14 7.54 307.3 124.37 285.97 73.87 269.52 97.89 269.52 124.78 242.55 124.78 242.55 7.54 269.52 7.54 269.52 62.62 303.43 11.79 306.27 7.54 345.14 7.54"/><polygon class="cls-2" points="371.52 79 346.68 79 359.21 37.86 371.52 79"/><polygon class="cls-2" points="385.22 124.78 332.74 124.78 340.09 100.64 377.99 100.64 385.22 124.78"/><path class="cls-2" d="M461.39,72.94q20.36-9.18,20.35-30.29A35.67,35.67,0,0,0,476.08,23q-5.67-8.83-14.3-12.14T438.89,7.54H378l9.33,29.81,27.37,87.43H415V78.31h19.67l18,46.47H483ZM450.48,52a13.21,13.21,0,0,1-6.65,5.15q-3.74,1.15-12,1.16H415V28.41h16.23q9.45,0,12.89.9a12.07,12.07,0,0,1,6.35,4.77,14.15,14.15,0,0,1,2.92,8.76A15.07,15.07,0,0,1,450.48,52Z"/></svg>